name Walk2.mot
datacolumns 19
datarows 25
range 2.07500000 2.19500000
endheader

                time	   L_ground_force_vx	   L_ground_force_vy	   L_ground_force_vz	   L_ground_force_px	   L_ground_force_py	   L_ground_force_pz	   R_ground_force_vx	   R_ground_force_vy	   R_ground_force_vz	   R_ground_force_px	   R_ground_force_py	   R_ground_force_pz	   L_ground_torque_x	   L_ground_torque_y	   L_ground_torque_z	   R_ground_torque_x	   R_ground_torque_y	   R_ground_torque_z	
          2.07500000	         -0.00000001	         -0.00000002	          0.00000000	          0.00000000	          0.00000000	          0.00000000	         13.74709947	         35.36902513	          4.04488664	          0.34847168	          0.00000000	          0.03536086	          0.00000000	          0.00000000	          0.00000000	          0.00000000	          0.05018036	          0.00000000	
          2.08000000	         -0.00000000	         -0.00000001	          0.00000000	          0.00000000	          0.00000000	          0.00000000	          9.12591790	         21.05667891	          2.83082008	          0.28537394	          0.00000000	          0.02878768	          0.00000000	          0.00000000	          0.00000000	          0.00000000	          0.05779206	          0.00000000	
          2.08500000	         -0.00000000	         -0.00000001	          0.00000000	          0.00000000	          0.00000000	          0.00000000	          5.44151481	         10.21540623	          1.82841662	          0.22245912	          0.00000000	          0.02230605	          0.00000000	          0.00000000	          0.00000000	          0.00000000	          0.05811465	          0.00000000	
          2.09000000	         -0.00000000	         -0.00000000	          0.00000000	          0.00000000	          0.00000000	          0.00000000	          2.64842046	          2.45519297	          1.04098906	          0.16451924	          0.00000000	          0.01638537	          0.00000000	          0.00000000	          0.00000000	          0.00000000	          0.05372536	          0.00000000	
          2.09500000	         -0.00000000	         -0.00000000	          0.00000000	          0.00000000	          0.00000000	          0.00000000	          0.64780513	         -2.71545755	          0.45369737	          0.11435204	          0.00000000	          0.01129266	          0.00000000	          0.00000000	          0.00000000	          0.00000000	          0.04666156	          0.00000000	
          2.10000000	          0.00000000	          0.00000000	          0.00000000	          0.00000000	          0.00000000	          0.00000000	         -0.68638429	         -5.81653570	          0.04119661	          0.07313692	          0.00000000	          0.00713370	          0.00000000	          0.00000000	          0.00000000	          0.00000000	          0.03844132	          0.00000000	
          2.10500000	          0.00000000	          0.00000000	          0.00000000	          0.00000000	          0.00000000	          0.00000000	         -1.48768941	         -7.34517940	         -0.22659029	          0.04092222	          0.00000000	          0.00390245	          0.00000000	          0.00000000	          0.00000000	          0.00000000	          0.03012960	          0.00000000	
          2.11000000	          0.00000000	          0.00000000	          0.00000000	          0.00000000	          0.00000000	          0.00000000	         -1.88389262	         -7.74455411	         -0.38039629	          0.01702710	          0.00000000	          0.00152167	          0.00000000	          0.00000000	          0.00000000	          0.00000000	          0.02241656	          0.00000000	
          2.11500000	          0.00000000	          0.00000000	          0.00000000	          0.00000000	          0.00000000	          0.00000000	         -1.98897694	         -7.38816479	         -0.44894435	          0.00035698	          0.00000000	         -0.00012542	          0.00000000	         -0.00000000	          0.00000000	          0.00000000	          0.01569746	          0.00000000	
          2.12000000	          0.00000000	          0.00000000	          0.00000000	         -0.00000000	          0.00000000	         -0.00000000	         -1.89906145	         -6.57530472	         -0.45739683	         -0.01036147	          0.00000000	         -0.00117175	          0.00000000	         -0.00000000	          0.00000000	          0.00000000	          0.01014716	          0.00000000	
          2.12500000	          0.00000000	          0.00000000	         -0.00000000	         -0.00000000	          0.00000000	         -0.00000000	         -1.69120759	         -5.53400620	         -0.42664267	         -0.01641554	          0.00000000	         -0.00175007	          0.00000000	         -0.00000000	          0.00000000	          0.00000000	          0.00578533	          0.00000000	
          2.13000000	          0.00000000	          0.00000000	         -0.00000000	         -0.00000000	          0.00000000	         -0.00000000	         -1.42416086	         -4.42856866	         -0.37317836	         -0.01899963	          0.00000000	         -0.00198253	          0.00000000	         -0.00000000	          0.00000000	          0.00000000	          0.00253063	          0.00000000	
          2.13500000	          0.00000000	          0.00000000	         -0.00000000	         -0.00000000	          0.00000000	         -0.00000000	         -1.14027507	         -3.36942674	         -0.30937883	         -0.01915411	          0.00000000	         -0.00197480	          0.00000000	         -0.00000000	          0.00000000	          0.00000000	          0.00024331	          0.00000000	
          2.14000000	          0.00000000	          0.00000000	         -0.00000000	         -0.00000000	          0.00000000	         -0.00000000	         -0.86804263	         -2.42373864	         -0.24399730	         -0.01773832	          0.00000000	         -0.00181366	          0.00000000	         -0.00000000	          0.00000000	          0.00000000	         -0.00124274	          0.00000000	
          2.14500000	          0.00000000	          0.00000000	         -0.00000000	         -0.00000000	          0.00000000	         -0.00000000	         -0.62481357	         -1.62559875	         -0.18277216	         -0.01542751	          0.00000000	         -0.00156689	          0.00000000	         -0.00000000	          0.00000000	          0.00000000	         -0.00209744	          0.00000000	
          2.15000000	          0.00000000	          0.00000000	         -0.00000000	         -0.00000000	          0.00000000	         -0.00000000	         -0.41942029	         -0.98520190	         -0.12905460	         -0.01272551	          0.00000000	         -0.00128472	          0.00000000	         -0.00000000	          0.00000000	          0.00000000	         -0.00247965	          0.00000000	
          2.15500000	          0.00000000	          0.00000000	         -0.00000000	         -0.00000000	          0.00000000	         -0.00000000	         -0.25453448	         -0.49661025	         -0.08439990	         -0.00998633	          0.00000000	         -0.00100216	          0.00000000	         -0.00000000	          0.00000000	          0.00000000	         -0.00252865	          0.00000000	
          2.16000000	          0.00000000	          0.00000000	         -0.00000000	         -0.00000000	          0.00000000	         -0.00000000	         -0.12866581	         -0.14401002	         -0.04908870	         -0.00743995	          0.00000000	         -0.00074170	          0.00000000	         -0.00000000	          0.00000000	          0.00000000	         -0.00236009	          0.00000000	
          2.16500000	          0.00000000	          0.00000000	         -0.00000000	         -0.00000000	          0.00000000	         -0.00000000	         -0.03777275	          0.09349513	         -0.02256199	         -0.00521860	          0.00000000	         -0.00051602	          0.00000000	         -0.00000000	          0.00000000	          0.00000000	         -0.00206534	          0.00000000	
          2.17000000	         -0.00000000	         -0.00000000	         -0.00000000	         -0.00000000	          0.00000000	         -0.00000000	          0.02350257	          0.23840824	         -0.00376654	         -0.00338136	          0.00000000	         -0.00033048	          0.00000000	         -0.00000000	          0.00000000	          0.00000000	         -0.00171297	          0.00000000	
          2.17500000	         -0.00000000	         -0.00000000	         -0.00000000	         -0.00000000	          0.00000000	         -0.00000000	          0.06093848	          0.31248301	          0.00858450	         -0.00193575	          0.00000000	         -0.00018536	          0.00000000	         -0.00000000	          0.00000000	          0.00000000	         -0.00135154	          0.00000000	
          2.18000000	         -0.00000000	         -0.00000000	         -0.00000000	         -0.00000000	          0.00000000	         -0.00000000	          0.08012590	          0.33527209	          0.01582606	         -0.00085561	          0.00000000	         -0.00007764	          0.00000000	         -0.00000000	          0.00000000	          0.00000000	         -0.00101286	          0.00000000	
          2.18500000	         -0.00000000	         -0.00000000	         -0.00000000	         -0.00000000	          0.00000000	         -0.00000000	          0.08609344	          0.32337032	          0.01921828	         -0.00009527	          0.00000000	         -0.00000242	          0.00000000	          0.00000000	          0.00000000	          0.00000000	         -0.00071557	          0.00000000	
          2.19000000	         -0.00000000	         -0.00000000	         -0.00000000	          0.00000000	          0.00000000	          0.00000000	          0.08311135	          0.29016326	          0.01987371	          0.00039985	          0.00000000	          0.00004601	          0.00000000	          0.00000000	          0.00000000	          0.00000000	         -0.00046833	          0.00000000	
          2.19500000	         -0.00000000	         -0.00000000	          0.00000000	          0.00000000	          0.00000000	          0.00000000	          0.07462589	          0.24591982	          0.01872225	          0.00068574	          0.00000000	          0.00007343	          0.00000000	          0.00000000	          0.00000000	          0.00000000	         -0.00027274	          0.00000000	
